<?xml version="1.0" encoding="UTF-8" standalone="no"?>
<!DOCTYPE svg PUBLIC "-//W3C//DTD SVG 1.1//EN" "http://www.w3.org/Graphics/SVG/1.1/DTD/svg11.dtd">
<svg xmlns="http://www.w3.org/2000/svg" version="1.1" viewBox="0.00 0.00 1024.00 222.00">
<g stroke-width="2.00" fill="none" stroke-linecap="butt">
<path stroke="#fb95b9" vector-effect="non-scaling-stroke" d="
  M 452.37 150.50
  L 452.36 151.21"
/>
<path stroke="#fb95b9" vector-effect="non-scaling-stroke" d="
  M 614.62 78.73
  L 614.65 78.04"
/>
</g>
<path fill="#044ef4" d="
  M 0.00 78.76
  L 0.00 76.56
  Q 1.17 70.40 5.54 66.04
  Q 35.36 36.28 65.85 6.12
  C 70.65 1.38 76.22 -0.40 82.82 1.30
  C 93.15 3.96 98.88 15.34 94.09 25.55
  Q 92.92 28.03 88.39 32.56
  Q 56.45 64.47 29.82 90.82
  C 24.12 96.46 16.57 97.66 9.37 94.09
  Q 0.84 89.85 0.00 78.76
  Z"
/>
<path fill="#ffffff" d="
  M 316.17 48.42
  L 304.16 59.39
  A 0.46 0.45 48.8 0 1 303.50 59.34
  C 297.44 52.25 289.90 48.31 280.15 49.45
  Q 272.98 50.29 269.04 54.95
  C 265.59 59.03 264.97 64.97 267.51 69.75
  C 270.66 75.66 278.76 79.51 284.79 81.97
  C 300.64 88.43 318.30 93.81 322.06 113.17
  Q 325.80 132.37 311.97 145.21
  C 304.33 152.30 293.57 154.79 282.71 154.62
  C 265.44 154.36 251.27 145.30 243.00 130.02
  A 0.78 0.77 61.1 0 1 243.29 128.98
  L 258.30 120.31
  A 0.35 0.35 0.0 0 1 258.79 120.47
  C 264.89 133.39 278.90 140.39 292.74 135.82
  Q 305.85 131.49 304.20 117.80
  C 303.26 110.04 294.28 105.58 287.45 102.55
  Q 273.28 96.26 265.44 92.62
  Q 248.81 84.90 247.95 66.82
  C 247.05 47.99 258.94 35.36 276.94 32.65
  Q 297.53 29.56 313.27 44.27
  Q 315.77 46.61 316.31 47.56
  A 0.71 0.70 -36.2 0 1 316.17 48.42
  Z"
/>
<circle fill="#ffffff" cx="345.00" cy="42.90" r="10.81"/>
<circle fill="#ffffff" cx="862.28" cy="42.92" r="10.81"/>
<rect fill="#ffffff" x="649.24" y="33.88" width="17.26" height="119.00" rx="0.34"/>
<path fill="#ffffff" d="
  M 760.26 33.87
  Q 765.32 33.87 770.87 33.87
  A 0.41 0.40 -7.3 0 1 771.26 34.16
  L 796.68 123.21
  A 0.32 0.32 0.0 0 0 797.29 123.21
  L 823.71 34.08
  A 0.32 0.31 -81.1 0 1 824.01 33.86
  L 842.67 33.86
  A 0.32 0.32 0.0 0 1 842.98 34.28
  L 807.95 152.44
  A 0.73 0.72 7.9 0 1 807.25 152.96
  L 787.88 152.96
  A 0.87 0.86 82.0 0 1 787.05 152.33
  Q 771.75 97.03 760.58 57.02
  Q 760.53 56.85 760.27 56.85
  Q 760.00 56.85 759.95 57.02
  Q 748.80 97.03 733.52 152.34
  A 0.87 0.86 -82.0 0 1 732.69 152.97
  L 713.32 152.98
  A 0.73 0.72 -7.9 0 1 712.62 152.46
  L 677.55 34.31
  A 0.32 0.32 0.0 0 1 677.86 33.89
  L 696.52 33.89
  A 0.32 0.31 81.1 0 1 696.82 34.10
  L 723.27 123.22
  A 0.32 0.32 0.0 0 0 723.88 123.22
  L 749.27 34.16
  A 0.41 0.40 7.3 0 1 749.65 33.87
  Q 755.21 33.87 760.26 33.87
  Z"
/>
<path fill="#f72a72" d="
  M 178.62 121.11
  Q 167.37 120.37 159.67 128.39
  Q 154.55 133.72 149.22 139.05
  A 0.66 0.66 0.0 0 1 148.28 139.05
  Q 113.78 104.68 101.63 92.40
  C 96.71 87.42 95.78 79.58 98.89 73.07
  Q 103.47 63.44 115.54 63.34
  C 120.86 63.30 124.18 65.96 128.34 70.10
  Q 149.65 91.30 178.85 120.60
  A 0.30 0.30 0.0 0 1 178.62 121.11
  Z"
/>
<path fill="#ffffff" d="
  M 486.85 79.16
  Q 487.28 78.90 491.98 76.01
  C 507.50 66.49 528.18 74.18 533.91 91.01
  Q 535.48 95.61 535.49 106.23
  Q 535.52 135.10 535.46 152.36
  A 0.58 0.58 0.0 0 1 534.88 152.94
  L 518.35 152.93
  A 0.60 0.60 0.0 0 1 517.75 152.33
  Q 517.74 138.20 517.76 106.01
  C 517.76 100.69 516.92 96.00 513.26 92.39
  C 505.33 84.54 491.84 87.88 487.68 97.50
  Q 486.27 100.75 486.29 107.72
  Q 486.37 148.02 486.30 152.59
  A 0.30 0.30 0.0 0 1 486.00 152.88
  L 469.42 152.88
  A 0.60 0.59 -0.0 0 1 468.82 152.29
  L 468.82 74.35
  A 0.68 0.67 -0.0 0 1 469.50 73.68
  L 485.63 73.68
  A 0.60 0.60 0.0 0 1 486.23 74.28
  L 486.23 78.81
  A 0.41 0.41 0.0 0 0 486.85 79.16
  Z"
/>
<path fill="#ffffff" d="
  M 1017.21 133.28
  C 1008.55 152.50 985.44 158.45 966.32 152.30
  C 948.99 146.74 938.34 130.25 938.91 112.28
  C 939.47 95.04 949.68 80.28 965.86 74.44
  C 979.57 69.49 996.41 71.50 1007.79 81.45
  Q 1022.90 94.66 1021.80 115.75
  A 0.80 0.79 1.5 0 1 1021.00 116.50
  L 958.04 116.50
  A 0.56 0.56 0.0 0 0 957.48 117.02
  C 956.72 126.46 965.46 134.82 973.61 137.65
  C 984.98 141.59 995.08 136.10 1002.42 127.26
  A 0.76 0.75 30.5 0 1 1003.29 127.04
  L 1016.87 132.44
  A 0.63 0.62 -67.1 0 1 1017.21 133.28
  Z
  M 980.65 102.75
  Q 1000.09 102.74 1001.74 102.69
  A 0.26 0.26 0.0 0 0 1001.99 102.35
  C 999.28 93.13 990.06 87.49 980.64 87.50
  C 971.22 87.51 962.01 93.16 959.31 102.39
  A 0.26 0.26 0.0 0 0 959.56 102.72
  Q 961.21 102.77 980.65 102.75
  Z"
/>
<path fill="#ffffff" d="
  M 452.37 150.50
  L 452.36 151.21
  C 452.45 166.23 445.44 179.80 432.74 187.69
  C 413.28 199.79 383.96 193.86 371.40 173.83
  A 0.62 0.62 0.0 0 1 371.51 173.04
  L 382.71 162.81
  A 0.51 0.50 53.0 0 1 383.48 162.92
  Q 390.51 174.03 401.97 177.03
  C 416.14 180.74 431.34 172.76 433.92 157.72
  Q 434.93 151.85 434.00 146.10
  A 0.32 0.32 0.0 0 0 433.50 145.89
  Q 418.39 157.06 401.48 154.10
  Q 388.58 151.84 379.59 143.18
  C 367.01 131.07 364.05 111.28 371.31 95.29
  C 378.78 78.86 395.82 70.08 413.61 72.37
  Q 423.92 73.71 433.84 81.37
  A 0.37 0.37 0.0 0 0 434.44 81.08
  L 434.44 74.31
  A 0.63 0.62 -90.0 0 1 435.06 73.68
  L 451.93 73.68
  A 0.44 0.44 0.0 0 1 452.37 74.12
  L 452.37 150.50
  Z
  M 434.37 113.28
  A 24.63 24.63 0.0 0 0 409.74 88.65
  A 24.63 24.63 0.0 0 0 385.11 113.28
  A 24.63 24.63 0.0 0 0 409.74 137.91
  A 24.63 24.63 0.0 0 0 434.37 113.28
  Z"
/>
<path fill="#ffffff" d="
  M 614.62 78.73
  L 614.65 78.04
  L 614.70 74.31
  A 0.57 0.57 0.0 0 1 615.27 73.75
  L 631.90 73.75
  A 0.60 0.59 90.0 0 1 632.49 74.35
  L 632.49 152.37
  A 0.56 0.56 0.0 0 1 631.93 152.93
  L 615.37 152.93
  A 0.55 0.54 -0.0 0 1 614.82 152.39
  L 614.82 143.88
  A 0.27 0.27 0.0 0 0 614.36 143.69
  C 594.92 162.95 562.77 155.99 551.83 130.87
  C 539.94 103.54 557.99 70.87 589.78 72.02
  Q 603.33 72.51 614.24 82.37
  A 0.22 0.22 0.0 0 0 614.61 82.21
  L 614.62 78.73
  Z
  M 615.14 113.30
  A 24.64 24.64 0.0 0 0 590.50 88.66
  A 24.64 24.64 0.0 0 0 565.86 113.30
  A 24.64 24.64 0.0 0 0 590.50 137.94
  A 24.64 24.64 0.0 0 0 615.14 113.30
  Z"
/>
<path fill="#ffffff" d="
  M 905.95 84.57
  C 911.91 75.83 918.64 70.63 929.74 72.46
  Q 931.30 72.71 932.63 73.43
  A 0.90 0.89 -76.2 0 1 933.10 74.22
  L 933.06 88.55
  A 0.59 0.59 0.0 0 1 932.51 89.14
  Q 932.18 89.16 926.76 89.01
  C 913.70 88.62 905.92 98.66 905.80 111.01
  Q 905.62 127.72 905.69 152.57
  A 0.31 0.31 0.0 0 1 905.38 152.88
  L 888.62 152.88
  A 0.45 0.44 90.0 0 1 888.18 152.43
  L 888.18 74.08
  A 0.40 0.40 0.0 0 1 888.58 73.68
  L 905.20 73.68
  A 0.43 0.43 0.0 0 1 905.63 74.11
  L 905.63 84.47
  A 0.18 0.18 0.0 0 0 905.95 84.57
  Z"
/>
<rect fill="#ffffff" x="336.32" y="73.69" width="17.44" height="79.20" rx="0.40"/>
<rect fill="#ffffff" x="853.63" y="73.69" width="17.44" height="79.26" rx="0.36"/>
<path fill="#f72a72" d="
  M 614.65 78.04
  L 614.62 78.73
  L 614.65 78.04
  Z"
/>
<path fill="#f72a72" d="
  M 14.42 99.68
  Q 25.65 100.42 33.35 92.42
  Q 38.47 87.09 43.79 81.77
  A 0.66 0.66 0.0 0 1 44.73 81.77
  Q 79.17 116.13 91.30 128.40
  C 96.21 133.38 97.14 141.21 94.03 147.71
  Q 89.44 157.33 77.39 157.42
  C 72.07 157.46 68.76 154.80 64.61 150.66
  Q 43.33 129.47 14.19 100.18
  A 0.30 0.30 0.0 0 1 14.42 99.68
  Z"
/>
<rect fill="#044ef4" x="-60.37" y="-17.31" transform="translate(145.04,172.40) rotate(-44.9)" width="120.74" height="34.62" rx="16.97"/>
<path fill="#f72a72" d="
  M 452.36 151.21
  L 452.37 150.50
  L 452.36 151.21
  Z"
/>
</svg>
